<svg width="20" height="20" viewBox="0 0 20 20" fill="none" xmlns="http://www.w3.org/2000/svg">
<path d="M17 3.49999H10.72L10.4 2.49999C10.1926 1.91322 9.80775 1.4055 9.2989 1.04715C8.79005 0.68881 8.18236 0.497593 7.56 0.499992H3C2.20435 0.499992 1.44129 0.816062 0.87868 1.37867C0.316071 1.94128 0 2.70434 0 3.49999V16.5C0 17.2956 0.316071 18.0587 0.87868 18.6213C1.44129 19.1839 2.20435 19.5 3 19.5H17C17.7956 19.5 18.5587 19.1839 19.1213 18.6213C19.6839 18.0587 20 17.2956 20 16.5V6.49999C20 5.70434 19.6839 4.94128 19.1213 4.37867C18.5587 3.81606 17.7956 3.49999 17 3.49999ZM18 16.5C18 16.7652 17.8946 17.0196 17.7071 17.2071C17.5196 17.3946 17.2652 17.5 17 17.5H3C2.73478 17.5 2.48043 17.3946 2.29289 17.2071C2.10536 17.0196 2 16.7652 2 16.5V3.49999C2 3.23478 2.10536 2.98042 2.29289 2.79289C2.48043 2.60535 2.73478 2.49999 3 2.49999H7.56C7.76964 2.49945 7.97416 2.56481 8.14463 2.68683C8.3151 2.80886 8.44291 2.98137 8.51 3.17999L9.05 4.81999C9.11709 5.01861 9.2449 5.19113 9.41537 5.31315C9.58584 5.43517 9.79036 5.50053 10 5.49999H17C17.2652 5.49999 17.5196 5.60535 17.7071 5.79289C17.8946 5.98042 18 6.23478 18 6.49999V16.5Z" fill="black"/>
</svg>
